<?xml version="1.0" encoding="utf-8"?>
<svg xmlns="http://www.w3.org/2000/svg" xmlns:xlink="http://www.w3.org/1999/xlink" width="600" height="400" viewBox="0 0 2400 1600">
<defs>
  <clipPath id="clip120">
    <rect x="0" y="0" width="2400" height="1600"/>
  </clipPath>
</defs>
<path clip-path="url(#clip120)" d="M0 1600 L2400 1600 L2400 0 L0 0  Z" fill="#ffffff" fill-rule="evenodd" fill-opacity="1"/>
<defs>
  <clipPath id="clip121">
    <rect x="480" y="0" width="1681" height="1600"/>
  </clipPath>
</defs>
<path clip-path="url(#clip120)" d="M47.2441 1552.76 L2352.76 1552.76 L2352.76 47.2441 L47.2441 47.2441  Z" fill="#ffffff" fill-rule="evenodd" fill-opacity="1"/>
<defs>
  <clipPath id="clip122">
    <rect x="47" y="47" width="2307" height="1507"/>
  </clipPath>
</defs>
<polyline clip-path="url(#clip122)" style="stroke:#000000; stroke-linecap:round; stroke-linejoin:round; stroke-width:12; stroke-opacity:1; fill:none" points="219.849,331.5 2266.45,331.5 "/>
<polyline clip-path="url(#clip122)" style="stroke:#000000; stroke-linecap:round; stroke-linejoin:round; stroke-width:12; stroke-opacity:1; fill:none" points="219.849,578.079 2266.45,578.079 "/>
<polyline clip-path="url(#clip122)" style="stroke:#000000; stroke-linecap:round; stroke-linejoin:round; stroke-width:12; stroke-opacity:1; fill:none" points="219.849,824.658 2266.45,824.658 "/>
<polyline clip-path="url(#clip122)" style="stroke:#000000; stroke-linecap:round; stroke-linejoin:round; stroke-width:12; stroke-opacity:1; fill:none" points="219.849,1071.24 2266.45,1071.24 "/>
<polyline clip-path="url(#clip122)" style="stroke:#000000; stroke-linecap:round; stroke-linejoin:round; stroke-width:12; stroke-opacity:1; fill:none" points="219.849,1317.82 2266.45,1317.82 "/>
<path clip-path="url(#clip122)" d="M293.823 738.355 L466.428 738.355 L466.428 910.96 L293.823 910.96 L293.823 738.355  Z" fill="#6fa5ff" fill-rule="evenodd" fill-opacity="1"/>
<polyline clip-path="url(#clip122)" style="stroke:#000000; stroke-linecap:round; stroke-linejoin:round; stroke-width:0; stroke-opacity:1; fill:none" points="293.823,738.355 466.428,738.355 466.428,910.96 293.823,910.96 293.823,738.355 "/>
<path clip-path="url(#clip122)" d="M786.981 245.198 L959.586 245.198 L959.586 417.803 L786.981 417.803 L786.981 245.198  Z" fill="#6fa5ff" fill-rule="evenodd" fill-opacity="1"/>
<polyline clip-path="url(#clip122)" style="stroke:#000000; stroke-linecap:round; stroke-linejoin:round; stroke-width:0; stroke-opacity:1; fill:none" points="786.981,245.198 959.586,245.198 959.586,417.803 786.981,417.803 786.981,245.198 "/>
<circle clip-path="url(#clip122)" cx="380.125" cy="331.5" r="32.4" fill="#6fa5ff" fill-rule="evenodd" fill-opacity="1" stroke="none"/>
<polyline clip-path="url(#clip122)" style="stroke:#6fa5ff; stroke-linecap:round; stroke-linejoin:round; stroke-width:12; stroke-opacity:1; fill:none" points="380.125,331.5 380.125,578.079 "/>
<path clip-path="url(#clip122)" d="M293.823 491.776 L466.428 491.776 L466.428 664.382 L293.823 664.382 L293.823 491.776  Z" fill="#6fa5ff" fill-rule="evenodd" fill-opacity="1"/>
<polyline clip-path="url(#clip122)" style="stroke:#000000; stroke-linecap:round; stroke-linejoin:round; stroke-width:0; stroke-opacity:1; fill:none" points="293.823,491.776 466.428,491.776 466.428,664.382 293.823,664.382 293.823,491.776 "/>
<circle clip-path="url(#clip122)" cx="626.704" cy="1071.24" r="32.4" fill="#6fa5ff" fill-rule="evenodd" fill-opacity="1" stroke="none"/>
<polyline clip-path="url(#clip122)" style="stroke:#6fa5ff; stroke-linecap:round; stroke-linejoin:round; stroke-width:12; stroke-opacity:1; fill:none" points="626.704,1071.24 626.704,578.079 "/>
<path clip-path="url(#clip122)" d="M540.402 491.776 L713.007 491.776 L713.007 664.382 L540.402 664.382 L540.402 491.776  Z" fill="#6fa5ff" fill-rule="evenodd" fill-opacity="1"/>
<polyline clip-path="url(#clip122)" style="stroke:#000000; stroke-linecap:round; stroke-linejoin:round; stroke-width:0; stroke-opacity:1; fill:none" points="540.402,491.776 713.007,491.776 713.007,664.382 540.402,664.382 540.402,491.776 "/>
<polyline clip-path="url(#clip122)" style="stroke:#6fa5ff; stroke-linecap:round; stroke-linejoin:round; stroke-width:12; stroke-opacity:1; fill:none" points="873.283,1071.24 873.283,1317.82 "/>
<circle clip-path="url(#clip122)" cx="873.283" cy="1071.24" r="32.4" fill="#6fa5ff" fill-rule="evenodd" fill-opacity="1" stroke="none"/>
<circle clip-path="url(#clip122)" cx="873.283" cy="1317.82" r="68.4" fill="#6fa5ff" fill-rule="evenodd" fill-opacity="1" stroke="none"/>
<polyline clip-path="url(#clip122)" style="stroke:#ffffff; stroke-linecap:round; stroke-linejoin:round; stroke-width:12; stroke-opacity:1; fill:none" points="836.296,1317.82 910.27,1317.82 "/>
<polyline clip-path="url(#clip122)" style="stroke:#ffffff; stroke-linecap:round; stroke-linejoin:round; stroke-width:12; stroke-opacity:1; fill:none" points="873.283,1280.83 873.283,1354.8 "/>
<polyline clip-path="url(#clip122)" style="stroke:#6fa5ff; stroke-linecap:round; stroke-linejoin:round; stroke-width:12; stroke-opacity:1; fill:none" points="1119.86,1071.24 1119.86,824.658 "/>
<polyline clip-path="url(#clip122)" style="stroke:#6fa5ff; stroke-linecap:round; stroke-linejoin:round; stroke-width:12; stroke-opacity:1; fill:none" points="1119.86,578.079 1119.86,824.658 "/>
<circle clip-path="url(#clip122)" cx="1119.86" cy="1071.24" r="32.4" fill="#6fa5ff" fill-rule="evenodd" fill-opacity="1" stroke="none"/>
<circle clip-path="url(#clip122)" cx="1119.86" cy="578.079" r="32.4" fill="#6fa5ff" fill-rule="evenodd" fill-opacity="1" stroke="none"/>
<circle clip-path="url(#clip122)" cx="1119.86" cy="824.658" r="68.4" fill="#6fa5ff" fill-rule="evenodd" fill-opacity="1" stroke="none"/>
<polyline clip-path="url(#clip122)" style="stroke:#ffffff; stroke-linecap:round; stroke-linejoin:round; stroke-width:12; stroke-opacity:1; fill:none" points="1082.88,824.658 1156.85,824.658 "/>
<polyline clip-path="url(#clip122)" style="stroke:#ffffff; stroke-linecap:round; stroke-linejoin:round; stroke-width:12; stroke-opacity:1; fill:none" points="1119.86,787.671 1119.86,861.645 "/>
<polyline clip-path="url(#clip122)" style="stroke:#6fa5ff; stroke-linecap:round; stroke-linejoin:round; stroke-width:12; stroke-opacity:1; fill:none" points="1366.44,331.5 1366.44,1317.82 "/>
<polyline clip-path="url(#clip122)" style="stroke:#6fa5ff; stroke-linecap:round; stroke-linejoin:round; stroke-width:12; stroke-opacity:1; fill:none" points="1329.45,294.513 1403.43,368.487 "/>
<polyline clip-path="url(#clip122)" style="stroke:#6fa5ff; stroke-linecap:round; stroke-linejoin:round; stroke-width:12; stroke-opacity:1; fill:none" points="1329.45,368.487 1403.43,294.513 "/>
<polyline clip-path="url(#clip122)" style="stroke:#6fa5ff; stroke-linecap:round; stroke-linejoin:round; stroke-width:12; stroke-opacity:1; fill:none" points="1329.45,1280.83 1403.43,1354.8 "/>
<polyline clip-path="url(#clip122)" style="stroke:#6fa5ff; stroke-linecap:round; stroke-linejoin:round; stroke-width:12; stroke-opacity:1; fill:none" points="1329.45,1354.8 1403.43,1280.83 "/>
<circle clip-path="url(#clip122)" cx="1613.02" cy="578.079" r="32.4" fill="#6fa5ff" fill-rule="evenodd" fill-opacity="1" stroke="none"/>
<circle clip-path="url(#clip122)" cx="1613.02" cy="824.658" r="32.4" fill="#6fa5ff" fill-rule="evenodd" fill-opacity="1" stroke="none"/>
<circle clip-path="url(#clip122)" cx="1613.02" cy="1071.24" r="32.4" fill="#6fa5ff" fill-rule="evenodd" fill-opacity="1" stroke="none"/>
<polyline clip-path="url(#clip122)" style="stroke:#6fa5ff; stroke-linecap:round; stroke-linejoin:round; stroke-width:12; stroke-opacity:1; fill:none" points="1613.02,331.5 1613.02,1071.24 "/>
<circle clip-path="url(#clip122)" cx="1613.02" cy="331.5" r="68.4" fill="#6fa5ff" fill-rule="evenodd" fill-opacity="1" stroke="none"/>
<polyline clip-path="url(#clip122)" style="stroke:#ffffff; stroke-linecap:round; stroke-linejoin:round; stroke-width:12; stroke-opacity:1; fill:none" points="1576.03,331.5 1650.01,331.5 "/>
<polyline clip-path="url(#clip122)" style="stroke:#ffffff; stroke-linecap:round; stroke-linejoin:round; stroke-width:12; stroke-opacity:1; fill:none" points="1613.02,294.513 1613.02,368.487 "/>
<circle clip-path="url(#clip122)" cx="1859.6" cy="1317.82" r="32.4" fill="#6fa5ff" fill-rule="evenodd" fill-opacity="1" stroke="none"/>
<circle clip-path="url(#clip122)" cx="1859.6" cy="824.658" r="32.4" fill="#6fa5ff" fill-rule="evenodd" fill-opacity="1" stroke="none"/>
<circle clip-path="url(#clip122)" cx="1859.6" cy="1071.24" r="32.4" fill="#6fa5ff" fill-rule="evenodd" fill-opacity="1" stroke="none"/>
<polyline clip-path="url(#clip122)" style="stroke:#6fa5ff; stroke-linecap:round; stroke-linejoin:round; stroke-width:12; stroke-opacity:1; fill:none" points="1859.6,824.658 1859.6,1317.82 "/>
<path clip-path="url(#clip122)" d="M2019.87 245.198 L2192.48 245.198 L2192.48 417.803 L2019.87 417.803 L2019.87 245.198  Z" fill="#000000" fill-rule="evenodd" fill-opacity="1"/>
<polyline clip-path="url(#clip122)" style="stroke:#000000; stroke-linecap:round; stroke-linejoin:round; stroke-width:0; stroke-opacity:1; fill:none" points="2019.87,245.198 2192.48,245.198 2192.48,417.803 2019.87,417.803 2019.87,245.198 "/>
<polyline clip-path="url(#clip122)" style="stroke:#ffffff; stroke-linecap:round; stroke-linejoin:round; stroke-width:8.4; stroke-opacity:1; fill:none" points="2106.18,356.158 2162.89,299.445 "/>
<polyline clip-path="url(#clip122)" style="stroke:#ffffff; stroke-linecap:round; stroke-linejoin:round; stroke-width:8.4; stroke-opacity:1; fill:none" points="2162.89,356.158 2162.61,350.496 2161.76,344.891 2160.36,339.398 2158.41,334.073 2155.95,328.968 2152.98,324.136 2149.55,319.623 2145.69,315.475 2141.43,311.733 2136.82,308.436 2131.9,305.615 2126.73,303.299 2121.35,301.512 2115.82,300.27 2110.19,299.587 2104.52,299.469 2098.87,299.918 2093.29,300.928 2087.84,302.491 2082.58,304.589 2077.55,307.203 2072.8,310.306 2068.39,313.867 2064.36,317.851 2060.74,322.217 2057.58,326.922 2054.9,331.92 2052.74,337.16 2051.11,342.59 2050.03,348.155 2049.51,353.8 "/>
<path clip-path="url(#clip122)" d="M2019.87 491.776 L2192.48 491.776 L2192.48 664.382 L2019.87 664.382 L2019.87 491.776  Z" fill="#000000" fill-rule="evenodd" fill-opacity="1"/>
<polyline clip-path="url(#clip122)" style="stroke:#000000; stroke-linecap:round; stroke-linejoin:round; stroke-width:0; stroke-opacity:1; fill:none" points="2019.87,491.776 2192.48,491.776 2192.48,664.382 2019.87,664.382 2019.87,491.776 "/>
<polyline clip-path="url(#clip122)" style="stroke:#ffffff; stroke-linecap:round; stroke-linejoin:round; stroke-width:8.4; stroke-opacity:1; fill:none" points="2106.18,602.737 2162.89,546.024 "/>
<polyline clip-path="url(#clip122)" style="stroke:#ffffff; stroke-linecap:round; stroke-linejoin:round; stroke-width:8.4; stroke-opacity:1; fill:none" points="2162.89,602.737 2162.61,597.075 2161.76,591.47 2160.36,585.977 2158.41,580.652 2155.95,575.547 2152.98,570.714 2149.55,566.201 2145.69,562.053 2141.43,558.312 2136.82,555.015 2131.9,552.194 2126.73,549.878 2121.35,548.091 2115.82,546.849 2110.19,546.166 2104.52,546.048 2098.87,546.497 2093.29,547.507 2087.84,549.069 2082.58,551.168 2077.55,553.782 2072.8,556.885 2068.39,560.446 2064.36,564.429 2060.74,568.796 2057.58,573.501 2054.9,578.499 2052.74,583.739 2051.11,589.168 2050.03,594.734 2049.51,600.379 "/>
<path clip-path="url(#clip120)" d="M102.841 339.096 Q102.841 347.319 106.203 352.018 Q109.606 356.677 115.52 356.677 Q121.434 356.677 124.837 352.018 Q128.24 347.319 128.24 339.096 Q128.24 330.872 124.837 326.214 Q121.434 321.515 115.52 321.515 Q109.606 321.515 106.203 326.214 Q102.841 330.872 102.841 339.096 M128.24 354.935 Q125.89 358.986 122.285 360.971 Q118.72 362.915 113.697 362.915 Q105.474 362.915 100.289 356.353 Q95.1441 349.79 95.1441 339.096 Q95.1441 328.401 100.289 321.839 Q105.474 315.276 113.697 315.276 Q118.72 315.276 122.285 317.261 Q125.89 319.206 128.24 323.257 L128.24 316.37 L135.694 316.37 L135.694 378.997 L128.24 378.997 L128.24 354.935 Z" fill="#000000" fill-rule="nonzero" fill-opacity="1" /><path clip-path="url(#clip120)" d="M149.548 357.284 L157.812 357.284 L157.812 332.533 L148.778 334.194 L148.778 329.495 L158.095 327.915 L163.645 327.915 L163.645 357.284 L171.949 357.284 L171.949 361.74 L149.548 361.74 L149.548 357.284 Z" fill="#000000" fill-rule="nonzero" fill-opacity="1" /><path clip-path="url(#clip120)" d="M103.185 585.675 Q103.185 593.898 106.547 598.597 Q109.95 603.255 115.864 603.255 Q121.779 603.255 125.182 598.597 Q128.584 593.898 128.584 585.675 Q128.584 577.451 125.182 572.793 Q121.779 568.094 115.864 568.094 Q109.95 568.094 106.547 572.793 Q103.185 577.451 103.185 585.675 M128.584 601.514 Q126.235 605.564 122.629 607.549 Q119.065 609.494 114.042 609.494 Q105.818 609.494 100.633 602.931 Q95.4884 596.369 95.4884 585.675 Q95.4884 574.98 100.633 568.418 Q105.818 561.855 114.042 561.855 Q119.065 561.855 122.629 563.84 Q126.235 565.785 128.584 569.835 L128.584 562.949 L136.038 562.949 L136.038 625.576 L128.584 625.576 L128.584 601.514 Z" fill="#000000" fill-rule="nonzero" fill-opacity="1" /><path clip-path="url(#clip120)" d="M154.429 603.701 L171.605 603.701 L171.605 608.319 L147.381 608.319 L147.381 603.863 Q148.758 602.607 151.31 600.339 Q165.245 587.984 165.245 584.176 Q165.245 581.502 163.139 579.882 Q161.032 578.221 157.589 578.221 Q155.482 578.221 153.011 578.95 Q150.54 579.639 147.624 581.056 L147.624 576.074 Q150.743 574.94 153.416 574.372 Q156.13 573.805 158.439 573.805 Q164.313 573.805 167.838 576.479 Q171.362 579.153 171.362 583.528 Q171.362 589.158 157.953 600.663 Q155.685 602.607 154.429 603.701 Z" fill="#000000" fill-rule="nonzero" fill-opacity="1" /><path clip-path="url(#clip120)" d="M102.679 832.253 Q102.679 840.477 106.041 845.176 Q109.444 849.834 115.358 849.834 Q121.272 849.834 124.675 845.176 Q128.078 840.477 128.078 832.253 Q128.078 824.03 124.675 819.371 Q121.272 814.672 115.358 814.672 Q109.444 814.672 106.041 819.371 Q102.679 824.03 102.679 832.253 M128.078 848.092 Q125.728 852.143 122.123 854.128 Q118.558 856.073 113.535 856.073 Q105.312 856.073 100.127 849.51 Q94.9821 842.948 94.9821 832.253 Q94.9821 821.559 100.127 814.996 Q105.312 808.434 113.535 808.434 Q118.558 808.434 122.123 810.419 Q125.728 812.363 128.078 816.414 L128.078 809.528 L135.532 809.528 L135.532 872.155 L128.078 872.155 L128.078 848.092 Z" fill="#000000" fill-rule="nonzero" fill-opacity="1" /><path clip-path="url(#clip120)" d="M164.293 836.588 Q168.02 837.317 170.045 839.545 Q172.111 841.732 172.111 845.054 Q172.111 850.077 168.263 852.791 Q164.415 855.506 157.244 855.506 Q154.935 855.506 152.383 855.06 Q149.872 854.655 147.036 853.845 L147.036 848.943 Q149.143 850.037 151.533 850.563 Q153.963 851.09 156.677 851.09 Q161.093 851.09 163.523 849.51 Q165.954 847.89 165.954 845.054 Q165.954 842.057 163.685 840.517 Q161.457 838.978 157.082 838.978 L153.599 838.978 L153.599 834.603 L157.407 834.603 Q161.214 834.603 163.159 833.347 Q165.144 832.051 165.144 829.62 Q165.144 827.271 163.118 826.055 Q161.093 824.8 157.244 824.8 Q155.624 824.8 153.558 825.164 Q151.492 825.529 148.211 826.461 L148.211 821.802 Q151.168 821.113 153.761 820.749 Q156.353 820.384 158.581 820.384 Q164.415 820.384 167.817 822.774 Q171.261 825.164 171.261 829.175 Q171.261 831.97 169.438 833.914 Q167.615 835.859 164.293 836.588 Z" fill="#000000" fill-rule="nonzero" fill-opacity="1" /><path clip-path="url(#clip120)" d="M101.889 1078.83 Q101.889 1087.06 105.251 1091.75 Q108.654 1096.41 114.568 1096.41 Q120.483 1096.41 123.885 1091.75 Q127.288 1087.06 127.288 1078.83 Q127.288 1070.61 123.885 1065.95 Q120.483 1061.25 114.568 1061.25 Q108.654 1061.25 105.251 1065.95 Q101.889 1070.61 101.889 1078.83 M127.288 1094.67 Q124.939 1098.72 121.333 1100.71 Q117.768 1102.65 112.745 1102.65 Q104.522 1102.65 99.3368 1096.09 Q94.1921 1089.53 94.1921 1078.83 Q94.1921 1068.14 99.3368 1061.58 Q104.522 1055.01 112.745 1055.01 Q117.768 1055.01 121.333 1057 Q124.939 1058.94 127.288 1062.99 L127.288 1056.11 L134.742 1056.11 L134.742 1118.73 L127.288 1118.73 L127.288 1094.67 Z" fill="#000000" fill-rule="nonzero" fill-opacity="1" /><path clip-path="url(#clip120)" d="M161.599 1072.55 L149.082 1089.53 L161.599 1089.53 L161.599 1072.55 M160.708 1067.65 L167.432 1067.65 L167.432 1089.53 L172.901 1089.53 L172.901 1093.94 L167.432 1093.94 L167.432 1101.48 L161.599 1101.48 L161.599 1093.94 L144.828 1093.94 L144.828 1089.04 L160.708 1067.65 Z" fill="#000000" fill-rule="nonzero" fill-opacity="1" /><path clip-path="url(#clip120)" d="M102.557 1325.41 Q102.557 1333.63 105.92 1338.33 Q109.322 1342.99 115.237 1342.99 Q121.151 1342.99 124.554 1338.33 Q127.956 1333.63 127.956 1325.41 Q127.956 1317.19 124.554 1312.53 Q121.151 1307.83 115.237 1307.83 Q109.322 1307.83 105.92 1312.53 Q102.557 1317.19 102.557 1325.41 M127.956 1341.25 Q125.607 1345.3 122.002 1347.29 Q118.437 1349.23 113.414 1349.23 Q105.19 1349.23 100.005 1342.67 Q94.8605 1336.11 94.8605 1325.41 Q94.8605 1314.72 100.005 1308.15 Q105.19 1301.59 113.414 1301.59 Q118.437 1301.59 122.002 1303.58 Q125.607 1305.52 127.956 1309.57 L127.956 1302.69 L135.41 1302.69 L135.41 1365.31 L127.956 1365.31 L127.956 1341.25 Z" fill="#000000" fill-rule="nonzero" fill-opacity="1" /><path clip-path="url(#clip120)" d="M148.697 1314.23 L169.357 1314.23 L169.357 1318.08 L153.518 1318.08 L153.518 1326.34 Q154.652 1325.98 155.827 1325.82 Q156.961 1325.65 158.095 1325.65 Q164.617 1325.65 168.425 1328.77 Q172.233 1331.85 172.233 1337.16 Q172.233 1342.63 168.303 1345.67 Q164.415 1348.66 157.285 1348.66 Q154.854 1348.66 152.302 1348.3 Q149.75 1347.93 147.077 1347.2 L147.077 1342.63 Q149.386 1343.72 151.897 1344.29 Q154.409 1344.81 157.204 1344.81 Q161.7 1344.81 164.334 1342.75 Q166.967 1340.68 166.967 1337.16 Q166.967 1333.63 164.334 1331.57 Q161.7 1329.5 157.204 1329.5 Q155.097 1329.5 152.991 1329.91 Q150.885 1330.31 148.697 1331.16 L148.697 1314.23 Z" fill="#000000" fill-rule="nonzero" fill-opacity="1" /><path clip-path="url(#clip120)" d="M356.975 794.418 L365.198 794.418 L365.198 831.16 Q365.198 840.882 368.722 845.176 Q372.246 849.429 380.146 849.429 Q388.004 849.429 391.529 845.176 Q395.053 840.882 395.053 831.16 L395.053 794.418 L403.276 794.418 L403.276 832.172 Q403.276 844.001 397.403 850.037 Q391.569 856.073 380.146 856.073 Q368.682 856.073 362.808 850.037 Q356.975 844.001 356.975 832.172 L356.975 794.418 Z" fill="#000000" fill-rule="nonzero" fill-opacity="1" /><path clip-path="url(#clip120)" d="M850.152 301.26 L858.943 301.26 L873.972 323.743 L889.082 301.26 L897.872 301.26 L878.428 330.305 L899.168 361.74 L890.378 361.74 L873.364 336.017 L856.229 361.74 L847.398 361.74 L868.989 329.455 L850.152 301.26 Z" fill="#000000" fill-rule="nonzero" fill-opacity="1" /><path clip-path="url(#clip120)" d="M356.995 547.839 L365.785 547.839 L380.814 570.322 L395.924 547.839 L404.714 547.839 L385.27 576.884 L406.011 608.319 L397.22 608.319 L380.206 582.596 L363.071 608.319 L354.24 608.319 L375.832 576.033 L356.995 547.839 Z" fill="#000000" fill-rule="nonzero" fill-opacity="1" /><path clip-path="url(#clip120)" d="M601.204 547.839 L609.994 547.839 L626.765 572.712 L643.414 547.839 L652.205 547.839 L630.816 579.517 L630.816 608.319 L622.593 608.319 L622.593 579.517 L601.204 547.839 Z" fill="#000000" fill-rule="nonzero" fill-opacity="1" /></svg>
